Coordinates
version=1
nRows=24
nColumns=24
inDegrees=yes

Units are S.I. units (second, meters, Newtons, ...)
Angles are in degrees.

endheader
time	pelvis_tilt	pelvis_list	pelvis_rotation	pelvis_tx	pelvis_ty	pelvis_tz	hip_flexion_r	hip_adduction_r	hip_rotation_r	knee_angle_r	ankle_angle_r	subtalar_angle_r	mtp_angle_r	hip_flexion_l	hip_adduction_l	hip_rotation_l	knee_angle_l	ankle_angle_l	subtalar_angle_l	mtp_angle_l	lumbar_extension	lumbar_bending	lumbar_rotation
      0.84133333	      6.58764710	     -6.97870871	      0.50894374	     -0.38782320	      1.01433857	      0.31492668	      2.52043566	      9.97560938	     -1.33206205	    -17.37892087	      8.89674656	    -10.57891281	     -4.15190298	      4.65045313	     -7.58080729	     -1.62827978	    -69.77800165	    -10.49789419	    -12.74113134	     -0.91906281	    -18.97597129	     16.49409499	     -1.80463521
      0.84550000	      6.62033356	     -6.74751794	      0.51829512	     -0.38292300	      1.01543527	      0.31542640	      1.94833438	      9.77274287	     -1.25447066	    -16.92201199	      8.87987058	    -10.59313803	     -4.14431901	      5.25707586	     -7.37051156	     -1.70581054	    -69.77397233	     -9.83808153	    -12.95356858	     -0.98602754	    -19.04776872	     16.15780115	     -1.67343176
      0.84966667	      6.67158895	     -6.52249028	      0.50768464	     -0.37802517	      1.01651455	      0.31595656	      1.34237209	      9.57971617	     -1.13897389	    -16.43768703	      8.87114022	    -10.63007834	     -4.13398859	      5.82763484	     -7.16933679	     -1.80362028	    -69.71851279	     -9.15993120	    -13.05389405	     -1.07408391	    -19.14474454	     15.80595913	     -1.44543182
      0.85383333	      6.74351540	     -6.30600742	      0.48842131	     -0.37309505	      1.01761974	      0.31650914	      0.68784806	      9.40004267	     -0.98440499	    -15.90188349	      8.87393119	    -10.69759932	     -4.11630371	      6.35393611	     -6.98148346	     -1.91665452	    -69.59128227	     -8.50916806	    -13.10503656	     -1.22891955	    -19.25554963	     15.47029792	     -1.12299389
      0.85800000	      6.78528965	     -6.07975250	      0.45385519	     -0.36820068	      1.01864520	      0.31705439	      0.08415023	      9.20330893	     -0.84123933	    -15.39969020	      8.83677726	    -10.73900935	     -4.08280539	      6.90486776	     -6.77224997	     -2.03399795	    -69.41898475	     -7.84897926	    -13.20438015	     -1.52554024	    -19.35656239	     15.12669708	     -0.84149641
      0.86216667	      6.84172207	     -5.81597487	      0.43389865	     -0.36329362	      1.01966931	      0.31756879	     -0.52700082	      8.95875874	     -0.76521158	    -14.92089378	      8.87511994	    -10.72275789	     -4.06907177	      7.42508471	     -6.51459499	     -2.13619356	    -69.17546656	     -7.22750109	    -13.22626627	     -1.64142442	    -19.43439855	     14.73848874	     -0.70507694
      0.86633333	      6.90639302	     -5.56505966	      0.39479315	     -0.35838462	      1.02068573	      0.31809685	     -1.15626286	      8.72672659	     -0.65948836	    -14.42062789	      8.87200191	    -10.71586137	     -4.05532847	      7.91654294	     -6.27129254	     -2.25741019	    -68.87507571	     -6.58577828	    -13.23751606	     -1.78261499	    -19.54318837	     14.35700118	     -0.46869023
      0.87050000	      6.94599081	     -5.29170043	      0.35762972	     -0.35350955	      1.02161514	      0.31860217	     -1.73559710	      8.46412683	     -0.59812979	    -13.96358270	      8.86009071	    -10.67184224	     -4.04986069	      8.43034512	     -5.99192986	     -2.36582774	    -68.52933041	     -5.97531676	    -13.27264570	     -1.84733818	    -19.62170301	     13.96446835	     -0.35334848
      0.87466667	      7.01659673	     -5.03390607	      0.31021637	     -0.34859702	      1.02255709	      0.31912852	     -2.37008565	      8.21988803	     -0.50014870	    -13.46805344	      8.90548846	    -10.63548300	     -4.04045186	      8.88460541	     -5.73400494	     -2.48232026	    -68.11726417	     -5.34846326	    -13.17496079	     -1.96095509	    -19.74305917	     13.57582085	     -0.08687152
      0.87883333	      7.07380728	     -4.78049740	      0.26189620	     -0.34369084	      1.02342436	      0.31963068	     -2.98120759	      7.97432992	     -0.43322255	    -12.98752829	      8.92901097	    -10.59314537	     -4.03258361	      9.34526513	     -5.48028451	     -2.60459456	    -67.66499495	     -4.72549026	    -13.08874778	     -2.08544101	    -19.82814819	     13.21022389	      0.13828621
      0.88300000	      7.12531691	     -4.52792970	      0.21114249	     -0.33881300	      1.02423547	      0.32012148	     -3.57763320	      7.72627068	     -0.37079375	    -12.51932746	      8.93989913	    -10.51520832	     -4.02458833	      9.80240761	     -5.22176148	     -2.72105880	    -67.16795034	     -4.10280262	    -12.99600767	     -2.25470894	    -19.93412160	     12.83528154	      0.36054761
      0.88716667	      7.18398063	     -4.25745299	      0.16391913	     -0.33392581	      1.02503234	      0.32059162	     -4.17811456	      7.45469603	     -0.33620281	    -12.06015003	      8.97826865	    -10.42187821	     -4.01949805	     10.23216327	     -4.93457019	     -2.82247047	    -66.60428016	     -3.50556429	    -12.85117093	     -2.40234492	    -20.03183270	     12.45196426	      0.53257176
      0.89133333	      7.17346797	     -3.98117982	      0.12511754	     -0.32904167	      1.02568364	      0.32103549	     -4.68485095	      7.17460467	     -0.34483465	    -11.63575920	      8.99642170	    -10.34548726	     -4.01982602	     10.73243875	     -4.63129941	     -2.90297702	    -65.99882696	     -2.96396404	    -12.74000197	     -2.43680599	    -20.02853915	     12.06591754	      0.59333527
      0.89550000	      7.25780214	     -3.73739551	      0.08262169	     -0.32417408	      1.02639546	      0.32148753	     -5.31125355	      6.92852448	     -0.32348058	    -11.17699981	      9.09165964	    -10.20059963	     -4.01855495	     11.11109182	     -4.37454308	     -2.99280239	    -65.34899207	     -2.34731093	    -12.44849091	     -2.52847402	    -20.17259645	     11.70746171	      0.82139648
      0.89966667	      7.28355760	     -3.49068296	      0.04455015	     -0.31931193	      1.02697270	      0.32190605	     -5.85708124	      6.67606963	     -0.33137895	    -10.75003956	      9.15150947	    -10.07740751	     -4.02030712	     11.54548358	     -4.10234627	     -3.06240786	    -64.65649498	     -1.78744794	    -12.21339437	     -2.60309623	    -20.23680600	     11.35738822	      0.97198361
      0.90383333	      7.27239660	     -3.22729920	      0.00040215	     -0.31444520	      1.02747322	      0.32229384	     -6.34690631	      6.40032754	     -0.36202379	    -10.35400125	      9.17956071	     -9.95426221	     -4.02316513	     11.99964315	     -3.79822325	     -3.12013802	    -63.90237090	     -1.25667327	    -11.99930427	     -2.64290408	    -20.24825388	     11.01470138	      1.06690029
      0.90800000	      7.28485202	     -2.98555787	     -0.03701161	     -0.30957865	      1.02793655	      0.32268224	     -6.86611972	      6.14815461	     -0.40258754	     -9.94898176	      9.23634104	     -9.80403369	     -4.02574309	     12.41729586	     -3.52305712	     -3.17457758	    -63.11161319	     -0.71788847	    -11.72341806	     -2.67661907	    -20.29405656	     10.67085859	      1.17821483
      0.91216667	      7.35467783	     -2.76840343	     -0.06872681	     -0.30473419	      1.02841336	      0.32306220	     -7.45344075	      5.92179153	     -0.44123910	     -9.53019291	      9.36361903	     -9.59622178	     -4.02986838	     12.75965948	     -3.27965552	     -3.22710184	    -62.27985747	     -0.17829473	    -11.37881041	     -2.73896388	    -20.42443433	     10.35012223	      1.36034351
      0.91633333	      7.37825259	     -2.54153506	     -0.10407272	     -0.29988152	      1.02878365	      0.32341232	     -7.97536260	      5.68138743	     -0.49674427	     -9.14153847	      9.44627261	     -9.41251063	     -4.03688568	     13.13528150	     -3.01124914	     -3.26115922	    -61.39486604	      0.31421136	    -11.07512308	     -2.79740438	    -20.48968317	     10.03310941	      1.48569303
      0.92050000	      7.35052371	     -2.31643112	     -0.13667764	     -0.29502508	      1.02904970	      0.32373367	     -8.43074732	      5.44251557	     -0.55863574	     -8.77168898	      9.47913831	     -9.27289778	     -4.04224246	     13.55141680	     -2.73365916	     -3.27284085	    -60.46010757	      0.76177440	    -10.80344221	     -2.82230621	    -20.48468875	      9.73678780	      1.55368116
      0.92466667	      7.38636598	     -2.13032694	     -0.16054241	     -0.29017884	      1.02929866	      0.32404817	     -8.96645994	      5.24551458	     -0.61959949	     -8.38082916	      9.61161074	     -9.05249484	     -4.05016908	     13.89053007	     -2.50925604	     -3.28686869	    -59.50390513	      1.23766022	    -10.43360178	     -2.86864949	    -20.57745044	      9.46309525	      1.68897135
      0.92883333	      7.35114913	     -1.92184068	     -0.19062231	     -0.28531754	      1.02944875	      0.32433668	     -9.40757645	      5.02265604	     -0.68666571	     -8.02239752	      9.65138136	     -8.91190591	     -4.05699333	     14.28225600	     -2.24211732	     -3.27702135	    -58.47702858	      1.62681596	    -10.15528436	     -2.88953634	    -20.56534421	      9.18733294	      1.75360972
      0.93300000	      7.36111408	     -1.73743284	     -0.21637701	     -0.28045926	      1.02958362	      0.32461614	     -9.90531626	      4.82544365	     -0.74866226	     -7.64861258	      9.72774797	     -8.73895595	     -4.06375984	     14.61102752	     -2.00464044	     -3.26212480	    -57.41537268	      2.01717334	     -9.82892841	     -2.90891048	    -20.61566172	      8.93228671	      1.83794735
      0.93716667	      7.41015321	     -1.56879581	     -0.24165541	     -0.27560896	      1.02970557	      0.32489418	    -10.45093684	      4.64431905	     -0.80884743	     -7.26346031	      9.86535886	     -8.51283066	     -4.07590688	     14.88153583	     -1.78847040	     -3.24954618	    -56.31241456	      2.37663368	     -9.49664422	     -2.94655586	    -20.73100408	      8.68599888	      1.96716982
